<svg width="28" height="30" viewBox="0 0 28 30" fill="none" xmlns="http://www.w3.org/2000/svg">
<path d="M23.0005 3H21.5005V1.5C21.5005 1.10218 21.3425 0.720644 21.0611 0.43934C20.7798 0.158035 20.3983 0 20.0005 0C19.6027 0 19.2211 0.158035 18.9398 0.43934C18.6585 0.720644 18.5005 1.10218 18.5005 1.5V3H9.50049V1.5C9.50049 1.10218 9.34245 0.720644 9.06115 0.43934C8.77984 0.158035 8.39831 0 8.00049 0C7.60266 0 7.22113 0.158035 6.93983 0.43934C6.65852 0.720644 6.50049 1.10218 6.50049 1.5V3H5.00049C3.80701 3 2.66242 3.47411 1.81851 4.31802C0.974594 5.16193 0.500488 6.30653 0.500488 7.5V25.5C0.500488 26.6935 0.974594 27.8381 1.81851 28.682C2.66242 29.5259 3.80701 30 5.00049 30H23.0005C24.194 30 25.3386 29.5259 26.1825 28.682C27.0264 27.8381 27.5005 26.6935 27.5005 25.5V7.5C27.5005 6.30653 27.0264 5.16193 26.1825 4.31802C25.3386 3.47411 24.194 3 23.0005 3ZM5.00049 6H6.50049V7.5C6.50049 7.89782 6.65852 8.27936 6.93983 8.56066C7.22113 8.84196 7.60266 9 8.00049 9C8.39831 9 8.77984 8.84196 9.06115 8.56066C9.34245 8.27936 9.50049 7.89782 9.50049 7.5V6H18.5005V7.5C18.5005 7.89782 18.6585 8.27936 18.9398 8.56066C19.2211 8.84196 19.6027 9 20.0005 9C20.3983 9 20.7798 8.84196 21.0611 8.56066C21.3425 8.27936 21.5005 7.89782 21.5005 7.5V6H23.0005C23.3983 6 23.7798 6.15804 24.0611 6.43934C24.3425 6.72064 24.5005 7.10218 24.5005 7.5V13.5H3.50049V7.5C3.50049 7.10218 3.65852 6.72064 3.93983 6.43934C4.22113 6.15804 4.60266 6 5.00049 6ZM23.0005 27H5.00049C4.60266 27 4.22113 26.842 3.93983 26.5607C3.65852 26.2794 3.50049 25.8978 3.50049 25.5V16.5H24.5005V25.5C24.5005 25.8978 24.3425 26.2794 24.0611 26.5607C23.7798 26.842 23.3983 27 23.0005 27Z" fill="white"/>
<path d="M8.00024 22.5C8.82867 22.5 9.50024 21.8284 9.50024 21C9.50024 20.1716 8.82867 19.5 8.00024 19.5C7.17182 19.5 6.50024 20.1716 6.50024 21C6.50024 21.8284 7.17182 22.5 8.00024 22.5Z" fill="white"/>
<path d="M20.0002 19.5H14.0002C13.6024 19.5 13.2209 19.658 12.9396 19.9393C12.6583 20.2206 12.5002 20.6022 12.5002 21C12.5002 21.3978 12.6583 21.7794 12.9396 22.0607C13.2209 22.342 13.6024 22.5 14.0002 22.5H20.0002C20.3981 22.5 20.7796 22.342 21.0609 22.0607C21.3422 21.7794 21.5002 21.3978 21.5002 21C21.5002 20.6022 21.3422 20.2206 21.0609 19.9393C20.7796 19.658 20.3981 19.5 20.0002 19.5Z" fill="white"/>
</svg>
