<svg width="33" height="33" viewBox="0 0 33 33" fill="none" xmlns="http://www.w3.org/2000/svg">
<path d="M31.356 13.4692L17.4781 0.487312C17.3108 0.332899 17.1117 0.210339 16.8923 0.1267C16.673 0.0430613 16.4377 0 16.2001 0C15.9625 0 15.7272 0.0430613 15.5079 0.1267C15.2885 0.210339 15.0894 0.332899 14.9221 0.487312L1.0442 13.4857C0.70839 13.7955 0.443175 14.1633 0.263956 14.5677C0.0847377 14.9721 -0.00491357 15.4051 0.000207654 15.8415V29.6471C-0.00118702 30.4905 0.350797 31.3022 0.983675 31.9152C1.61655 32.5281 2.48214 32.8956 3.40219 32.942H9.00015L9 21.6C9 19.2 11.6139 16.4675 14.4 16.4675H19.2C20.2432 16.4675 23.4001 18 23.4001 21.6C23.3033 20.0648 23.4001 21.1631 23.4001 21.6V32.942H28.998C29.9181 32.8956 30.7836 32.5281 31.4165 31.9152C32.0494 31.3022 32.4014 30.4905 32.4 29.6471V15.8415C32.4014 14.9567 32.0271 14.1061 31.356 13.4692Z" fill="white"/>
</svg>
