<svg width="55" height="57" viewBox="0 0 55 57" fill="none" xmlns="http://www.w3.org/2000/svg">
<path d="M4.42285 38.1064C3.97508 37.6834 3.74276 37.175 3.72589 36.5813C3.71014 36.0271 3.91378 35.5261 4.33681 35.0784L17.4892 21.1567C19.0286 19.568 20.7704 18.4786 22.7145 17.8886C24.6586 17.2986 26.6078 17.2333 28.5619 17.6927C30.5353 18.1318 32.3158 19.1013 33.9033 20.6011C35.5112 22.1202 36.5904 23.8524 37.1409 25.7976C37.7105 27.7225 37.756 29.6722 37.2773 31.6467C36.819 33.6404 35.8303 35.4412 34.3113 37.0491C32.7922 38.6571 31.081 39.7753 29.1775 40.4038C27.3137 41.0311 25.4358 41.1637 23.5438 40.8015C21.6711 40.419 19.9919 39.5259 18.5061 38.1222C17.3052 36.9877 16.4267 35.6955 15.8705 34.2456C15.3539 32.7945 15.1432 31.3051 15.2385 29.7772L7.45088 38.0204C7.02785 38.4681 6.53926 38.6999 5.98511 38.7156C5.41173 38.7517 4.89098 38.5486 4.42285 38.1064ZM20.4913 34.7976C21.5294 35.7783 22.6862 36.4089 23.9618 36.6896C25.2566 36.9499 26.5419 36.8738 27.8177 36.4612C29.133 36.0475 30.3002 35.3013 31.3193 34.2225C32.3577 33.1235 33.0364 31.9158 33.3555 30.5994C33.7142 29.282 33.7173 27.9944 33.3646 26.7368C33.0312 25.4588 32.3455 24.3295 31.3074 23.3488C30.2898 22.3874 29.1233 21.7669 27.8081 21.4874C26.5325 21.2067 25.2472 21.2829 23.9523 21.7158C22.6765 22.1284 21.5195 22.8842 20.4812 23.9833C19.462 25.062 18.7731 26.2601 18.4144 27.5776C18.0749 28.8747 18.0719 30.1622 18.4053 31.4402C18.7783 32.717 19.4737 33.8362 20.4913 34.7976Z" fill="#16DB65"/>
<path d="M17.7085 38.0808C16.121 36.581 15.0322 34.859 14.4421 32.9149C13.8917 30.9696 13.8456 29.0001 14.304 27.0064C14.7826 25.0319 15.7815 23.2407 17.3006 21.6328C18.8196 20.0249 20.5111 18.9073 22.3749 18.2799C24.2784 17.6514 26.1664 17.5284 28.0392 17.911C29.9311 18.2732 31.62 19.1561 33.1058 20.5598C34.3066 21.6943 35.1755 22.9967 35.7125 24.4669C36.2687 25.9168 36.489 27.3961 36.3734 28.9047L44.161 20.6616C44.6032 20.1935 45.1014 19.9515 45.6556 19.9358C46.2301 19.9393 46.7412 20.1525 47.189 20.5756C47.6571 21.0178 47.8991 21.516 47.9148 22.0702C47.9305 22.6243 47.7173 23.1355 47.275 23.6036L34.1226 37.5253C32.6036 39.1332 30.8618 40.2226 28.8973 40.7934C26.9532 41.3834 24.9944 41.4589 23.0211 41.0198C21.0669 40.5603 19.2961 39.5807 17.7085 38.0808ZM20.3044 35.3331C21.3424 36.3138 22.4992 36.9444 23.7749 37.2251C25.0697 37.4854 26.3646 37.3991 27.6596 36.9662C28.9545 36.5332 30.1116 35.7774 31.1307 34.6987C32.169 33.5996 32.8579 32.4015 33.1974 31.1044C33.5369 29.8073 33.5303 28.5299 33.1777 27.2723C32.8443 25.9943 32.1585 24.865 31.1205 23.8844C30.1028 22.9229 28.9364 22.3024 27.6212 22.0229C26.3456 21.7422 25.0597 21.7986 23.7636 22.1919C22.4879 22.6045 21.3309 23.3603 20.2925 24.4594C19.2734 25.5381 18.5845 26.7362 18.2258 28.0537C17.8874 29.3904 17.885 30.6977 18.2184 31.9757C18.5914 33.2525 19.2867 34.3717 20.3044 35.3331Z" fill="#16DB65"/>
</svg>
