<svg width="35" height="23" viewBox="0 0 35 23" fill="none" xmlns="http://www.w3.org/2000/svg">
<path d="M32.5937 9.625H2.40625C1.42249 9.625 0.625 10.4225 0.625 11.4062V11.5938C0.625 12.5775 1.42249 13.375 2.40625 13.375H32.5937C33.5775 13.375 34.375 12.5775 34.375 11.5938V11.4062C34.375 10.4225 33.5775 9.625 32.5937 9.625Z" fill="#F3EFF5"/>
<path d="M32.5937 19H2.40625C1.42249 19 0.625 19.7975 0.625 20.7812V20.9687C0.625 21.9525 1.42249 22.75 2.40625 22.75H32.5937C33.5775 22.75 34.375 21.9525 34.375 20.9687V20.7812C34.375 19.7975 33.5775 19 32.5937 19Z" fill="#F3EFF5"/>
<path d="M32.5937 0.25H2.40625C1.42249 0.25 0.625 1.04749 0.625 2.03125V2.21875C0.625 3.20251 1.42249 4 2.40625 4H32.5937C33.5775 4 34.375 3.20251 34.375 2.21875V2.03125C34.375 1.04749 33.5775 0.25 32.5937 0.25Z" fill="#F3EFF5"/>
</svg>
